<?xml version="1.0" encoding="UTF-8" standalone="no"?>
<svg
   xmlns:dc="http://purl.org/dc/elements/1.1/"
   xmlns:cc="http://creativecommons.org/ns#"
   xmlns:rdf="http://www.w3.org/1999/02/22-rdf-syntax-ns#"
   xmlns:svg="http://www.w3.org/2000/svg"
   xmlns="http://www.w3.org/2000/svg"
   xmlns:sodipodi="http://sodipodi.sourceforge.net/DTD/sodipodi-0.dtd"
   xmlns:inkscape="http://www.inkscape.org/namespaces/inkscape"
   width="48"
   height="48"
   viewBox="0 0 48 48"
   version="1.1"
   id="svg4017"
   sodipodi:docname="500px.svg"
   inkscape:version="0.92.5 (2060ec1f9f, 2020-04-08)">
  <metadata
     id="metadata4023">
    <rdf:RDF>
      <cc:Work
         rdf:about="">
        <dc:format>image/svg+xml</dc:format>
        <dc:type
           rdf:resource="http://purl.org/dc/dcmitype/StillImage" />
        <dc:title></dc:title>
      </cc:Work>
    </rdf:RDF>
  </metadata>
  <defs
     id="defs4021" />
  <sodipodi:namedview
     pagecolor="#ffffff"
     bordercolor="#666666"
     borderopacity="1"
     objecttolerance="10"
     gridtolerance="10"
     guidetolerance="10"
     inkscape:pageopacity="0"
     inkscape:pageshadow="2"
     inkscape:window-width="3734"
     inkscape:window-height="2032"
     id="namedview4019"
     showgrid="false"
     fit-margin-top="0"
     fit-margin-left="0"
     fit-margin-right="0"
     fit-margin-bottom="0"
     inkscape:zoom="74.5"
     inkscape:cx="24"
     inkscape:cy="24"
     inkscape:window-x="106"
     inkscape:window-y="54"
     inkscape:window-maximized="1"
     inkscape:current-layer="svg4017" />
  <path
     d="M 24,0 C 10.746,0 0,10.746 0,24 0,37.254 10.746,48 24,48 37.254,48 48,37.254 48,24 48,10.746 37.254,0 24,0 Z m 9.074,17.26 c -0.178,0.2 -0.386,0.414 -0.604,0.414 l -0.256,-0.106 c -1.116,-0.966 -2.14,-1.63 -3.228,-2.09 -1.368,-0.578 -2.82,-0.872 -4.32,-0.872 -1.322,0 -2.776,0.276 -4.088,0.778 C 20.17,15.54 19.958,15 19.876,14.798 19.782,14.542 19.74,14.352 19.758,14.206 c 0.018,-0.154 0.1,-0.264 0.238,-0.318 1.284,-0.556 3.03,-0.888 4.67,-0.888 1.716,0 3.38,0.336 4.946,1 1.442,0.61 2.61,1.364 3.674,2.372 0.29,0.276 0.088,0.554 -0.212,0.888 z m -10.528,7.306 c -0.164,-0.174 -0.096,-0.392 0.218,-0.708 0.186,-0.182 0.346,-0.276 0.482,-0.276 l 0.198,0.08 1.028,1.028 1.018,-1.016 c 0.176,-0.164 0.452,-0.09 0.738,0.196 0.198,0.198 0.396,0.456 0.17,0.698 l -1.02,1.03 0.978,0.978 c 0.102,0.112 0.31,0.342 -0.108,0.768 -0.176,0.18 -0.346,0.272 -0.5,0.272 -0.114,-0.002 -0.208,-0.052 -0.298,-0.154 l -0.966,-0.964 -1.028,1.034 -0.232,0.084 c -0.15,0 -0.318,-0.086 -0.492,-0.258 L 22.7,27.326 C 22.598,27.23 22.43,27.066 22.426,26.88 l 0.126,-0.268 1.022,-1.024 z m 0.1,5.218 c 0.06,-0.2 0.246,-0.808 0.684,-0.676 0.032,0.008 0.79,0.192 1.208,0.192 2.166,0 3.862,-1.69 3.862,-3.846 0,-1.012 -0.394,-1.96 -1.114,-2.672 -0.724,-0.718 -1.696,-1.114 -2.738,-1.114 -1.074,0 -2.06,0.444 -2.776,1.252 -0.624,0.706 -0.998,1.642 -0.998,2.502 l -0.008,6.456 c 1.122,0.682 2.428,1.042 3.78,1.042 1.998,0 3.942,-0.798 5.332,-2.19 1.41,-1.408 2.186,-3.286 2.186,-5.286 0,-1.992 -0.78,-3.868 -2.198,-5.284 -1.412,-1.412 -3.292,-2.19 -5.298,-2.19 -2.016,0 -3.902,0.778 -5.314,2.19 -0.01,0.008 -0.914,0.918 -1.204,1.35 l -0.028,0.034 c -0.188,0.262 -0.366,0.51 -1.14,0.344 -0.396,-0.084 -0.824,-0.334 -0.824,-0.674 V 10.598 C 16.056,10.31 16.29,10 16.662,10 h 13.7 c 0.462,0.004 0.462,0.648 0.462,0.86 0,0.212 0,0.856 -0.46,0.86 h -12.67 l 0.004,7.538 c 0.88,-0.91 2.39,-1.88 3.282,-2.258 1.114,-0.47 2.366,-0.72 3.618,-0.72 1.236,0 2.438,0.242 3.566,0.72 1.094,0.462 2.074,1.124 2.914,1.964 0.844,0.842 1.502,1.822 1.964,2.914 0.478,1.13 0.72,2.332 0.72,3.568 0,1.238 -0.242,2.438 -0.72,3.568 -0.462,1.092 -1.122,2.072 -1.964,2.914 -0.842,0.84 -1.82,1.502 -2.914,1.964 -1.128,0.478 -2.33,0.72 -3.566,0.72 -1.236,0 -2.438,-0.242 -3.566,-0.72 -1.094,-0.46 -2.072,-1.124 -2.916,-1.964 -0.84,-0.84 -1.5,-1.822 -1.96,-2.912 l -0.24,-0.622 c -0.132,-0.438 0.472,-0.624 0.67,-0.684 0.458,-0.14 0.792,-0.21 0.938,0.18 0.376,0.996 0.95,1.974 1.524,2.612 0.002,-1.27 0.006,-5.14 0.012,-5.302 v -0.032 c 0,-1.312 0.576,-2.63 1.582,-3.618 1.056,-1.04 2.46,-1.612 3.958,-1.612 3.056,0 5.542,2.468 5.542,5.502 0,3.058 -2.488,5.546 -5.542,5.546 -0.602,0 -1.056,-0.042 -1.754,-0.256 -0.082,-0.024 -0.436,-0.178 -0.2,-0.946 z m 11.136,4.384 -0.098,0.104 c -1.17,1.168 -2.534,2.086 -4.046,2.728 -1.57,0.664 -3.238,1 -4.954,1 -1.718,0 -3.386,-0.336 -4.958,-1 -1.514,-0.64 -2.874,-1.558 -4.042,-2.726 -1.168,-1.168 -2.086,-2.53 -2.726,-4.044 -0.4,-0.944 -0.684,-1.944 -0.846,-2.954 -0.056,-0.436 0.548,-0.53 0.75,-0.56 0.478,-0.074 0.81,-0.048 0.88,0.314 l 0.01,0.068 c 0.054,0.308 0.218,1.244 0.722,2.49 0.516,1.276 1.314,2.46 2.376,3.522 1.016,1.018 2.202,1.816 3.52,2.374 1.368,0.578 2.816,0.87 4.314,0.87 1.494,0 2.946,-0.292 4.31,-0.87 1.318,-0.558 2.504,-1.356 3.524,-2.374 l 0.096,-0.098 C 32.716,32.908 32.85,32.876 33,32.92 c 0.146,0.042 0.314,0.158 0.512,0.356 0.514,0.506 0.4,0.752 0.27,0.892 z"
     id="path4015"
     inkscape:connector-curvature="0"
     style="stroke-width:2" />
</svg>
