<?xml version="1.0" encoding="UTF-8" standalone="no"?>
<svg
   xmlns:dc="http://purl.org/dc/elements/1.1/"
   xmlns:cc="http://creativecommons.org/ns#"
   xmlns:rdf="http://www.w3.org/1999/02/22-rdf-syntax-ns#"
   xmlns:svg="http://www.w3.org/2000/svg"
   xmlns="http://www.w3.org/2000/svg"
   xmlns:sodipodi="http://sodipodi.sourceforge.net/DTD/sodipodi-0.dtd"
   xmlns:inkscape="http://www.inkscape.org/namespaces/inkscape"
   width="48"
   height="46.816463"
   viewBox="0 0 48 46.816464"
   version="1.1"
   id="svg3856"
   sodipodi:docname="github.svg"
   inkscape:version="0.92.5 (2060ec1f9f, 2020-04-08)">
  <metadata
     id="metadata3862">
    <rdf:RDF>
      <cc:Work
         rdf:about="">
        <dc:format>image/svg+xml</dc:format>
        <dc:type
           rdf:resource="http://purl.org/dc/dcmitype/StillImage" />
        <dc:title></dc:title>
      </cc:Work>
    </rdf:RDF>
  </metadata>
  <defs
     id="defs3860" />
  <sodipodi:namedview
     pagecolor="#ffffff"
     bordercolor="#666666"
     borderopacity="1"
     objecttolerance="10"
     gridtolerance="10"
     guidetolerance="10"
     inkscape:pageopacity="0"
     inkscape:pageshadow="2"
     inkscape:window-width="3734"
     inkscape:window-height="2032"
     id="namedview3858"
     showgrid="false"
     units="px"
     inkscape:zoom="74.5"
     inkscape:cx="20.409396"
     inkscape:cy="23.11235"
     inkscape:window-x="106"
     inkscape:window-y="54"
     inkscape:window-maximized="1"
     inkscape:current-layer="svg3856"
     fit-margin-top="0"
     fit-margin-left="0"
     fit-margin-right="0"
     fit-margin-bottom="0" />
  <path
     d="M 24,0 C 10.748,0 0,10.746 0,24 0,34.604 6.876,43.6 16.414,46.774 17.612,46.996 18,46.252 18,45.62 V 41.152 C 11.324,42.604 9.934,38.32 9.934,38.32 8.842,35.546 7.268,34.808 7.268,34.808 5.09,33.318 7.434,33.35 7.434,33.35 c 2.41,0.168 3.678,2.474 3.678,2.474 2.14,3.668 5.614,2.608 6.984,1.994 0.214,-1.55 0.836,-2.61 1.524,-3.208 C 14.29,34 8.686,31.942 8.686,22.748 c 0,-2.622 0.938,-4.762 2.472,-6.442 -0.248,-0.606 -1.07,-3.048 0.234,-6.3520002 0,0 2.016,-0.644 6.602,2.4600002 1.914,-0.532 3.966,-0.798 6.006,-0.808 2.04,0.01 4.094,0.276 6.012,0.808 C 34.594,9.3099998 36.606,9.9539998 36.606,9.9539998 37.912,13.26 37.09,15.702 36.842,16.306 c 1.54,1.68 2.47,3.822 2.47,6.442 0,9.218 -5.614,11.248 -10.958,11.842 0.86,0.744 1.646,2.204 1.646,4.444 v 6.586 c 0,0.638 0.384,1.388 1.602,1.152 C 41.132,43.594 48,34.6 48,24 48,10.746 37.254,0 24,0 Z"
     id="path3854"
     inkscape:connector-curvature="0"
     style="stroke-width:2" />
</svg>
