<?xml version="1.0" encoding="UTF-8" standalone="no"?>
<svg
   xmlns:dc="http://purl.org/dc/elements/1.1/"
   xmlns:cc="http://creativecommons.org/ns#"
   xmlns:rdf="http://www.w3.org/1999/02/22-rdf-syntax-ns#"
   xmlns:svg="http://www.w3.org/2000/svg"
   xmlns="http://www.w3.org/2000/svg"
   xmlns:sodipodi="http://sodipodi.sourceforge.net/DTD/sodipodi-0.dtd"
   xmlns:inkscape="http://www.inkscape.org/namespaces/inkscape"
   width="48"
   height="48"
   viewBox="0 0 48 48"
   version="1.1"
   id="svg3819"
   sodipodi:docname="instagram.svg"
   inkscape:version="0.92.5 (2060ec1f9f, 2020-04-08)">
  <metadata
     id="metadata3825">
    <rdf:RDF>
      <cc:Work
         rdf:about="">
        <dc:format>image/svg+xml</dc:format>
        <dc:type
           rdf:resource="http://purl.org/dc/dcmitype/StillImage" />
        <dc:title></dc:title>
      </cc:Work>
    </rdf:RDF>
  </metadata>
  <defs
     id="defs3823" />
  <sodipodi:namedview
     pagecolor="#ffffff"
     bordercolor="#666666"
     borderopacity="1"
     objecttolerance="10"
     gridtolerance="10"
     guidetolerance="10"
     inkscape:pageopacity="0"
     inkscape:pageshadow="2"
     inkscape:window-width="3734"
     inkscape:window-height="2032"
     id="namedview3821"
     showgrid="false"
     fit-margin-top="0"
     fit-margin-left="0"
     fit-margin-right="0"
     fit-margin-bottom="0"
     inkscape:zoom="74.5"
     inkscape:cx="24"
     inkscape:cy="24"
     inkscape:window-x="106"
     inkscape:window-y="54"
     inkscape:window-maximized="1"
     inkscape:current-layer="svg3819" />
  <path
     d="m 24,4.326 c 6.408,0 7.168,0.024 9.7,0.14 6.504,0.296 9.542,3.382 9.838,9.838 0.116,2.53 0.138,3.29 0.138,9.698 0,6.41 -0.024,7.168 -0.138,9.698 -0.298,6.45 -3.328,9.542 -9.838,9.838 -2.532,0.116 -3.288,0.14 -9.7,0.14 -6.408,0 -7.168,-0.024 -9.698,-0.14 C 7.782,43.24 4.76,40.14 4.464,33.698 4.348,31.168 4.324,30.41 4.324,24 4.324,17.592 4.35,16.834 4.464,14.302 4.762,7.848 7.792,4.76 14.302,4.464 16.834,4.35 17.592,4.326 24,4.326 Z M 24,0 C 17.482,0 16.666,0.028 14.106,0.144 5.39,0.544 0.546,5.38 0.146,14.104 0.028,16.666 0,17.482 0,24 c 0,6.518 0.028,7.336 0.144,9.896 0.4,8.716 5.236,13.56 13.96,13.96 C 16.666,47.972 17.482,48 24,48 c 6.518,0 7.336,-0.028 9.896,-0.144 8.708,-0.4 13.564,-5.236 13.958,-13.96 C 47.972,31.336 48,30.518 48,24 48,17.482 47.972,16.666 47.856,14.106 47.464,5.398 42.622,0.546 33.898,0.146 31.336,0.028 30.518,0 24,0 Z m 0,11.676 c -6.806,0 -12.324,5.518 -12.324,12.324 0,6.806 5.518,12.326 12.324,12.326 6.806,0 12.324,-5.518 12.324,-12.326 C 36.324,17.194 30.806,11.676 24,11.676 Z M 24,32 c -4.418,0 -8,-3.58 -8,-8 0,-4.418 3.582,-8 8,-8 4.418,0 8,3.582 8,8 0,4.42 -3.582,8 -8,8 z M 36.812,8.31 c -1.592,0 -2.882,1.29 -2.882,2.88 0,1.59 1.29,2.88 2.882,2.88 1.59,0 2.878,-1.29 2.878,-2.88 0,-1.59 -1.288,-2.88 -2.878,-2.88 z"
     id="path3817"
     inkscape:connector-curvature="0"
     style="stroke-width:2" />
</svg>
